<?xml version="1.0" encoding="UTF-8" standalone="no"?>
<svg xmlns:svg="http://www.w3.org/2000/svg" xmlns="http://www.w3.org/2000/svg" version="1.0" width="528.75" height="510.75" id="svg2">
  <defs id="defs4"/>
  <g transform="translate(-57.37975,71.8801)" id="layer1">
    <path d="M -834.15625,-27.558647 L -829.65625,-34.308647 C -807.15652,-23.808194 -789.53154,-12.933205 -776.78125,-1.6836473 C -764.03156,9.5667724 -758.03157,20.066762 -758.78125,29.816353 C -759.53157,39.566742 -764.40656,47.816734 -773.40625,54.566353 C -782.40654,61.316721 -789.53154,54.941727 -794.78125,35.441353 C -800.03153,15.941766 -813.15651,-5.058213 -834.15625,-27.558647 L -834.15625,-27.558647 z M -804.90625,147.94135 L -804.90625,201.94135 L -636.15625,201.94135 L -636.15625,147.94135 L -804.90625,147.94135 z M -804.90625,215.44135 L -804.90625,276.19135 L -636.15625,276.19135 L -636.15625,215.44135 L -804.90625,215.44135 z M -804.90625,289.69135 L -804.90625,345.94135 L -636.15625,345.94135 L -636.15625,289.69135 L -804.90625,289.69135 z M -755.40625,134.44135 L -748.65625,80.441353 L -827.40625,80.441353 C -846.90648,80.441701 -864.90646,82.691699 -881.40625,87.191353 L -901.65625,66.941353 L -703.65625,66.941353 C -678.15665,21.94176 -660.90667,-14.808203 -651.90625,-43.308647 L -606.90625,-11.808647 C -617.40671,-7.3082108 -629.0317,0.94178099 -641.78125,12.941353 C -654.53167,24.941757 -669.90666,42.941739 -687.90625,66.941353 L -602.40625,66.941353 L -573.15625,37.691353 L -532.65625,80.441353 L -712.65625,80.441353 L -741.90625,134.44135 L -638.40625,134.44135 L -615.90625,111.94135 L -584.40625,143.44135 L -606.90625,159.19135 L -606.90625,260.44135 C -606.90672,302.44148 -606.15672,341.44144 -604.65625,377.44135 L -636.15625,390.94135 L -636.15625,359.44135 L -804.90625,359.44135 L -804.90625,384.19135 L -836.40625,397.69135 C -834.90649,345.19144 -834.15649,296.81649 -834.15625,252.56635 C -834.15649,208.31657 -834.90649,162.94162 -836.40625,116.44135 L -802.65625,134.44135 L -755.40625,134.44135 z M -1005.1563,-25.308647 L -1000.6563,-32.058647 C -973.65635,-18.5582 -954.53137,-6.1832119 -943.28125,5.0663527 C -932.0314,16.316766 -926.7814,27.941754 -927.53125,39.941353 C -928.2814,51.94173 -933.53139,60.566721 -943.28125,65.816353 C -953.03137,71.066711 -960.90637,62.816719 -966.90625,41.066353 C -972.90635,19.316763 -985.65634,-2.8082153 -1005.1563,-25.308647 L -1005.1563,-25.308647 z M -935.40625,352.69135 C -923.4064,367.69141 -905.78142,382.6914 -882.53125,397.69135 C -859.28147,412.69137 -822.15651,422.81636 -771.15625,428.06635 C -720.15661,433.31635 -639.15669,431.44135 -528.15625,422.44135 L -528.15625,431.44135 C -552.15678,435.94135 -565.65676,447.19133 -568.65625,465.19135 C -639.15669,466.69132 -697.65663,465.19132 -744.15625,460.69135 C -790.65654,456.19133 -826.2815,449.06633 -851.03125,439.31635 C -875.78145,429.56635 -897.53143,414.19137 -916.28125,393.19135 C -935.03139,372.19141 -947.03138,362.06642 -952.28125,362.81635 C -957.53137,363.56642 -969.15636,373.31641 -987.15625,392.06635 C -1005.1563,410.81637 -1016.4063,424.69136 -1020.9063,433.69135 L -1050.1563,402.19135 C -1024.6563,387.19139 -996.15633,369.94141 -964.65625,350.44135 L -964.65625,163.69135 L -982.65625,163.69135 C -1002.1563,163.69162 -1020.1563,165.94162 -1036.6563,170.44135 L -1056.9063,150.19135 L -969.15625,150.19135 L -944.40625,125.44135 L -912.90625,156.94135 L -935.40625,172.69135 L -935.40625,352.69135 z " transform="translate(1114.286,-28.57145)" style="font-size:576px;font-style:normal;font-variant:normal;font-weight:normal;font-stretch:normal;text-align:start;line-height:100%;writing-mode:lr-tb;text-anchor:start" id="flowRoot1872"/>
  </g>
</svg>